# xmcd
#
# Track frame offsets:
#	150
#	10916
#	46908
#	74048
#	105358
#	130282
#	155254
#
# Disc length: 2392 seconds
#
# Revision: 1
# Processed by: cddbd v1.5.1PL0 Copyright (c) Steve Scherf et al.
# Submitted via: EasyCDDAExtractor 5.1.0
#
DISCID=55095607
DTITLE=Black Sabbath - Blossom Music Center Cuyahoga Falls Cleveland OH 20-08-
DTITLE=99 Disc 1
DYEAR=1999
DGENRE=Hard Rock
TTITLE0=Sabbath Medley
TTITLE1=War Pigs
TTITLE2=NIB
TTITLE3=Fairies Wear Boots
TTITLE4=After Forever
TTITLE5=Electric Funeral
TTITLE6=Sweet Leaf
EXTD=
EXTT0=
EXTT1=
EXTT2=
EXTT3=
EXTT4=
EXTT5=
EXTT6=
PLAYORDER=
